<svg width="50" height="46" viewBox="0 0 50 46" fill="none" xmlns="http://www.w3.org/2000/svg">
<path d="M24.4308 42.5437C24.4308 43.9244 25.5501 45.0437 26.9308 45.0437C28.3116 45.0437 29.4308 43.9244 29.4308 42.5437L24.4308 42.5437ZM24.4308 -1.09278e-07L24.4308 42.5437L29.4308 42.5437L29.4308 1.09278e-07L24.4308 -1.09278e-07Z" fill="#35363A"/>
<path d="M7.73273 31.1898C6.537 31.8802 6.12731 33.4092 6.81767 34.6049C7.50802 35.8006 9.037 36.2103 10.2327 35.52L7.73273 31.1898ZM44.5767 9.91797L7.73273 31.1898L10.2327 35.52L47.0767 14.2481L44.5767 9.91797Z" fill="#35363A"/>
<path d="M2.99999 21.4308C1.61928 21.4308 0.499989 22.5501 0.499989 23.9308C0.499988 25.3115 1.61928 26.4308 2.99999 26.4308L2.99999 21.4308ZM49.5322 21.4308L2.99999 21.4308L2.99999 26.4308L49.5322 26.4308L49.5322 21.4308Z" fill="#35363A"/>
<path d="M15.3016 2.07372C14.6112 0.877985 13.0822 0.468296 11.8865 1.15865C10.6908 1.84901 10.2811 3.37798 10.9714 4.57372L15.3016 2.07372ZM38.5677 42.3718L15.3016 2.07372L10.9714 4.57372L34.2375 44.8718L38.5677 42.3718Z" fill="#35363A"/>
</svg>
