<svg width="226" height="97" viewBox="0 0 226 97" fill="none" xmlns="http://www.w3.org/2000/svg">
<path fill-rule="evenodd" clip-rule="evenodd" d="M224.151 4.08768C227.326 8.48458 226.311 14.6058 221.885 17.7598L200.758 32.8142C186.908 42.6831 170.859 49.0751 153.982 51.4442L135.642 54.0189C124.206 55.6243 113.213 59.505 103.321 65.4288L84.5124 76.6926C73.5879 83.2349 61.5606 87.7568 49.0132 90.0395L11.6416 96.838C6.28343 97.8128 1.14432 94.2881 0.16307 88.9655C-0.818183 83.6429 2.73 78.5378 8.08815 77.5631L45.4598 70.7645C55.6633 68.9083 65.4439 65.231 74.3277 59.9109L93.1363 48.647C105.3 41.3625 118.818 36.5904 132.882 34.6162L151.222 32.0416C164.946 30.115 177.997 24.917 189.26 16.8916L210.387 1.83718C214.813 -1.31681 220.976 -0.30923 224.151 4.08768Z" fill="#00AD62"/>
</svg>
